<mxfile host="app.diagrams.net" agent="Mozilla/5.0 (Windows NT 10.0; Win64; x64) AppleWebKit/537.36 (KHTML, like Gecko) Chrome/133.0.0.0 Safari/537.36" version="26.0.16">
  <diagram name="Page-1" id="kop-ikx4BNG7bgzcr9zh">
    <mxGraphModel dx="1880" dy="825" grid="1" gridSize="10" guides="1" tooltips="1" connect="1" arrows="1" fold="1" page="1" pageScale="1" pageWidth="827" pageHeight="1169" math="0" shadow="0">
      <root>
        <mxCell id="0" />
        <mxCell id="1" parent="0" />
        <mxCell id="hp2ctFzZmuVKrJQSW8B8-1" value="" style="whiteSpace=wrap;html=1;aspect=fixed;" vertex="1" parent="1">
          <mxGeometry x="300" y="120" width="1400" height="1400" as="geometry" />
        </mxCell>
        <mxCell id="hp2ctFzZmuVKrJQSW8B8-2" value="Passager" style="shape=umlActor;verticalLabelPosition=bottom;verticalAlign=top;html=1;outlineConnect=0;" vertex="1" parent="1">
          <mxGeometry x="130" y="370" width="30" height="60" as="geometry" />
        </mxCell>
        <mxCell id="hp2ctFzZmuVKrJQSW8B8-3" value="" style="ellipse;whiteSpace=wrap;html=1;" vertex="1" parent="1">
          <mxGeometry x="550" y="180" width="76" height="50" as="geometry" />
        </mxCell>
        <mxCell id="hp2ctFzZmuVKrJQSW8B8-4" value="Réserver un taxi" style="text;html=1;align=center;verticalAlign=middle;whiteSpace=wrap;rounded=0;" vertex="1" parent="1">
          <mxGeometry x="558" y="190" width="60" height="30" as="geometry" />
        </mxCell>
        <mxCell id="hp2ctFzZmuVKrJQSW8B8-5" value="" style="ellipse;whiteSpace=wrap;html=1;" vertex="1" parent="1">
          <mxGeometry x="550" y="240" width="76" height="50" as="geometry" />
        </mxCell>
        <mxCell id="hp2ctFzZmuVKrJQSW8B8-6" value="Consulter l&#39;historique des trajets" style="text;html=1;align=center;verticalAlign=middle;whiteSpace=wrap;rounded=0;" vertex="1" parent="1">
          <mxGeometry x="569" y="260" width="38" height="10" as="geometry" />
        </mxCell>
        <mxCell id="hp2ctFzZmuVKrJQSW8B8-7" value="" style="ellipse;whiteSpace=wrap;html=1;" vertex="1" parent="1">
          <mxGeometry x="550" y="300" width="76" height="50" as="geometry" />
        </mxCell>
        <mxCell id="hp2ctFzZmuVKrJQSW8B8-8" value="Annuler une réservation" style="text;html=1;align=center;verticalAlign=middle;whiteSpace=wrap;rounded=0;" vertex="1" parent="1">
          <mxGeometry x="558" y="310" width="60" height="30" as="geometry" />
        </mxCell>
        <mxCell id="hp2ctFzZmuVKrJQSW8B8-9" value="" style="ellipse;whiteSpace=wrap;html=1;" vertex="1" parent="1">
          <mxGeometry x="550" y="360" width="76" height="50" as="geometry" />
        </mxCell>
        <mxCell id="hp2ctFzZmuVKrJQSW8B8-10" value="Filtrer les chauffeurs" style="text;html=1;align=center;verticalAlign=middle;whiteSpace=wrap;rounded=0;" vertex="1" parent="1">
          <mxGeometry x="558" y="370" width="60" height="30" as="geometry" />
        </mxCell>
        <mxCell id="hp2ctFzZmuVKrJQSW8B8-11" value="" style="ellipse;whiteSpace=wrap;html=1;" vertex="1" parent="1">
          <mxGeometry x="550" y="420" width="76" height="50" as="geometry" />
        </mxCell>
        <mxCell id="hp2ctFzZmuVKrJQSW8B8-12" value="&lt;font style=&quot;font-size: 8px;&quot;&gt;Laisser un avis et une note sur un chauffeur&lt;/font&gt;" style="text;html=1;align=center;verticalAlign=middle;whiteSpace=wrap;rounded=0;" vertex="1" parent="1">
          <mxGeometry x="558" y="435" width="60" height="20" as="geometry" />
        </mxCell>
        <mxCell id="hp2ctFzZmuVKrJQSW8B8-13" value="" style="ellipse;whiteSpace=wrap;html=1;" vertex="1" parent="1">
          <mxGeometry x="550" y="480" width="76" height="50" as="geometry" />
        </mxCell>
        <mxCell id="hp2ctFzZmuVKrJQSW8B8-14" value="&lt;font style=&quot;font-size: 8px;&quot;&gt;Effectuer un paiement sécurisé via Stripe&lt;/font&gt;" style="text;html=1;align=center;verticalAlign=middle;whiteSpace=wrap;rounded=0;" vertex="1" parent="1">
          <mxGeometry x="550" y="490" width="78" height="30" as="geometry" />
        </mxCell>
        <mxCell id="hp2ctFzZmuVKrJQSW8B8-15" value="" style="ellipse;whiteSpace=wrap;html=1;" vertex="1" parent="1">
          <mxGeometry x="550" y="540" width="76" height="50" as="geometry" />
        </mxCell>
        <mxCell id="hp2ctFzZmuVKrJQSW8B8-16" value="&lt;font style=&quot;font-size: 10px;&quot;&gt;Recevoir des notifications&lt;/font&gt;" style="text;html=1;align=center;verticalAlign=middle;whiteSpace=wrap;rounded=0;" vertex="1" parent="1">
          <mxGeometry x="554" y="550" width="72" height="30" as="geometry" />
        </mxCell>
        <mxCell id="hp2ctFzZmuVKrJQSW8B8-17" value="" style="ellipse;whiteSpace=wrap;html=1;" vertex="1" parent="1">
          <mxGeometry x="550" y="600" width="76" height="50" as="geometry" />
        </mxCell>
        <mxCell id="hp2ctFzZmuVKrJQSW8B8-18" value="&lt;font style=&quot;font-size: 9px;&quot;&gt;Recevoir un email avec un QR&lt;/font&gt;" style="text;html=1;align=center;verticalAlign=middle;whiteSpace=wrap;rounded=0;" vertex="1" parent="1">
          <mxGeometry x="554" y="610" width="72" height="30" as="geometry" />
        </mxCell>
        <mxCell id="hp2ctFzZmuVKrJQSW8B8-19" value="Chauffeur" style="shape=umlActor;verticalLabelPosition=bottom;verticalAlign=top;html=1;outlineConnect=0;" vertex="1" parent="1">
          <mxGeometry x="120" y="960" width="30" height="60" as="geometry" />
        </mxCell>
        <mxCell id="hp2ctFzZmuVKrJQSW8B8-20" value="" style="ellipse;whiteSpace=wrap;html=1;" vertex="1" parent="1">
          <mxGeometry x="550" y="840" width="76" height="50" as="geometry" />
        </mxCell>
        <mxCell id="hp2ctFzZmuVKrJQSW8B8-21" value="&lt;font style=&quot;font-size: 10px;&quot;&gt;Publier ses disponibilités&lt;/font&gt;" style="text;html=1;align=center;verticalAlign=middle;whiteSpace=wrap;rounded=0;" vertex="1" parent="1">
          <mxGeometry x="554" y="850" width="72" height="30" as="geometry" />
        </mxCell>
        <mxCell id="hp2ctFzZmuVKrJQSW8B8-22" value="" style="ellipse;whiteSpace=wrap;html=1;" vertex="1" parent="1">
          <mxGeometry x="550" y="670" width="76" height="50" as="geometry" />
        </mxCell>
        <mxCell id="hp2ctFzZmuVKrJQSW8B8-23" value="&lt;font size=&quot;1&quot;&gt;inscription&lt;/font&gt;" style="text;html=1;align=center;verticalAlign=middle;whiteSpace=wrap;rounded=0;" vertex="1" parent="1">
          <mxGeometry x="554" y="680" width="72" height="30" as="geometry" />
        </mxCell>
        <mxCell id="hp2ctFzZmuVKrJQSW8B8-24" value="" style="ellipse;whiteSpace=wrap;html=1;" vertex="1" parent="1">
          <mxGeometry x="550" y="900" width="76" height="50" as="geometry" />
        </mxCell>
        <mxCell id="hp2ctFzZmuVKrJQSW8B8-25" value="&lt;font style=&quot;font-size: 10px;&quot;&gt;Automatisation des disponibilités&lt;/font&gt;" style="text;html=1;align=center;verticalAlign=middle;whiteSpace=wrap;rounded=0;" vertex="1" parent="1">
          <mxGeometry x="554" y="915" width="72" height="20" as="geometry" />
        </mxCell>
        <mxCell id="hp2ctFzZmuVKrJQSW8B8-26" value="" style="ellipse;whiteSpace=wrap;html=1;" vertex="1" parent="1">
          <mxGeometry x="550" y="960" width="76" height="50" as="geometry" />
        </mxCell>
        <mxCell id="hp2ctFzZmuVKrJQSW8B8-27" value="&lt;font style=&quot;font-size: 10px;&quot;&gt;Consulter l&#39;historique des trajets&amp;nbsp;&lt;/font&gt;" style="text;html=1;align=center;verticalAlign=middle;whiteSpace=wrap;rounded=0;" vertex="1" parent="1">
          <mxGeometry x="554" y="970" width="72" height="30" as="geometry" />
        </mxCell>
        <mxCell id="hp2ctFzZmuVKrJQSW8B8-28" value="" style="ellipse;whiteSpace=wrap;html=1;" vertex="1" parent="1">
          <mxGeometry x="550" y="1020" width="76" height="50" as="geometry" />
        </mxCell>
        <mxCell id="hp2ctFzZmuVKrJQSW8B8-29" value="&lt;font style=&quot;font-size: 10px;&quot;&gt;Gestion de réservation&lt;/font&gt;" style="text;html=1;align=center;verticalAlign=middle;whiteSpace=wrap;rounded=0;" vertex="1" parent="1">
          <mxGeometry x="554" y="1030" width="72" height="30" as="geometry" />
        </mxCell>
        <mxCell id="hp2ctFzZmuVKrJQSW8B8-30" value="" style="ellipse;whiteSpace=wrap;html=1;" vertex="1" parent="1">
          <mxGeometry x="786" y="1000" width="76" height="50" as="geometry" />
        </mxCell>
        <mxCell id="hp2ctFzZmuVKrJQSW8B8-31" value="Accepter" style="text;html=1;align=center;verticalAlign=middle;whiteSpace=wrap;rounded=0;" vertex="1" parent="1">
          <mxGeometry x="790" y="1010" width="72" height="30" as="geometry" />
        </mxCell>
        <mxCell id="hp2ctFzZmuVKrJQSW8B8-32" value="" style="ellipse;whiteSpace=wrap;html=1;" vertex="1" parent="1">
          <mxGeometry x="788" y="1070" width="76" height="50" as="geometry" />
        </mxCell>
        <mxCell id="hp2ctFzZmuVKrJQSW8B8-33" value="&lt;span style=&quot;font-size: 10px;&quot;&gt;Refuser&lt;/span&gt;" style="text;html=1;align=center;verticalAlign=middle;whiteSpace=wrap;rounded=0;" vertex="1" parent="1">
          <mxGeometry x="792" y="1080" width="72" height="30" as="geometry" />
        </mxCell>
        <mxCell id="hp2ctFzZmuVKrJQSW8B8-34" value="Admin" style="shape=umlActor;verticalLabelPosition=bottom;verticalAlign=top;html=1;outlineConnect=0;" vertex="1" parent="1">
          <mxGeometry x="120" y="1249" width="30" height="60" as="geometry" />
        </mxCell>
        <mxCell id="hp2ctFzZmuVKrJQSW8B8-35" value="" style="ellipse;whiteSpace=wrap;html=1;" vertex="1" parent="1">
          <mxGeometry x="554" y="1159" width="76" height="50" as="geometry" />
        </mxCell>
        <mxCell id="hp2ctFzZmuVKrJQSW8B8-36" value="gestion des utilisateurs" style="text;html=1;align=center;verticalAlign=middle;whiteSpace=wrap;rounded=0;" vertex="1" parent="1">
          <mxGeometry x="558" y="1169" width="72" height="30" as="geometry" />
        </mxCell>
        <mxCell id="hp2ctFzZmuVKrJQSW8B8-37" value="" style="ellipse;whiteSpace=wrap;html=1;" vertex="1" parent="1">
          <mxGeometry x="556" y="1220" width="76" height="50" as="geometry" />
        </mxCell>
        <mxCell id="hp2ctFzZmuVKrJQSW8B8-38" value="&lt;font style=&quot;font-size: 9px;&quot;&gt;Gérer et superviser les réservations&amp;nbsp;&lt;/font&gt;" style="text;html=1;align=center;verticalAlign=middle;whiteSpace=wrap;rounded=0;" vertex="1" parent="1">
          <mxGeometry x="558" y="1230" width="78" height="30" as="geometry" />
        </mxCell>
        <mxCell id="hp2ctFzZmuVKrJQSW8B8-39" value="" style="ellipse;whiteSpace=wrap;html=1;" vertex="1" parent="1">
          <mxGeometry x="556" y="1280" width="76" height="50" as="geometry" />
        </mxCell>
        <mxCell id="hp2ctFzZmuVKrJQSW8B8-40" value="&lt;font style=&quot;font-size: 8px;&quot;&gt;Suivre et analyser les statistiques des trajets&lt;/font&gt;" style="text;html=1;align=center;verticalAlign=middle;whiteSpace=wrap;rounded=0;" vertex="1" parent="1">
          <mxGeometry x="560" y="1290" width="76" height="30" as="geometry" />
        </mxCell>
        <mxCell id="hp2ctFzZmuVKrJQSW8B8-41" value="" style="ellipse;whiteSpace=wrap;html=1;" vertex="1" parent="1">
          <mxGeometry x="558" y="1340" width="76" height="50" as="geometry" />
        </mxCell>
        <mxCell id="hp2ctFzZmuVKrJQSW8B8-42" value="&lt;font style=&quot;font-size: 10px;&quot;&gt;Intégrer des messages flash&lt;/font&gt;" style="text;html=1;align=center;verticalAlign=middle;whiteSpace=wrap;rounded=0;" vertex="1" parent="1">
          <mxGeometry x="562" y="1350" width="72" height="30" as="geometry" />
        </mxCell>
        <mxCell id="hp2ctFzZmuVKrJQSW8B8-43" value="" style="ellipse;whiteSpace=wrap;html=1;" vertex="1" parent="1">
          <mxGeometry x="936" y="1130" width="76" height="50" as="geometry" />
        </mxCell>
        <mxCell id="hp2ctFzZmuVKrJQSW8B8-44" value="&lt;font style=&quot;font-size: 10px;&quot;&gt;Gestion de réservation&lt;/font&gt;" style="text;html=1;align=center;verticalAlign=middle;whiteSpace=wrap;rounded=0;" vertex="1" parent="1">
          <mxGeometry x="940" y="1140" width="72" height="30" as="geometry" />
        </mxCell>
        <mxCell id="hp2ctFzZmuVKrJQSW8B8-49" value="" style="ellipse;whiteSpace=wrap;html=1;" vertex="1" parent="1">
          <mxGeometry x="1270" y="710" width="236" height="100" as="geometry" />
        </mxCell>
        <mxCell id="hp2ctFzZmuVKrJQSW8B8-50" value="&lt;font style=&quot;font-size: 24px;&quot;&gt;Authentification&lt;/font&gt;" style="text;html=1;align=center;verticalAlign=middle;whiteSpace=wrap;rounded=0;" vertex="1" parent="1">
          <mxGeometry x="1290" y="725" width="196" height="70" as="geometry" />
        </mxCell>
        <mxCell id="hp2ctFzZmuVKrJQSW8B8-51" value="" style="ellipse;whiteSpace=wrap;html=1;" vertex="1" parent="1">
          <mxGeometry x="940" y="1199" width="76" height="50" as="geometry" />
        </mxCell>
        <mxCell id="hp2ctFzZmuVKrJQSW8B8-52" value="&lt;font style=&quot;font-size: 10px;&quot;&gt;Gestion de réservation&lt;/font&gt;" style="text;html=1;align=center;verticalAlign=middle;whiteSpace=wrap;rounded=0;" vertex="1" parent="1">
          <mxGeometry x="944" y="1209" width="72" height="30" as="geometry" />
        </mxCell>
        <mxCell id="hp2ctFzZmuVKrJQSW8B8-53" value="&lt;font style=&quot;font-size: 36px;&quot;&gt;TaxiLink V2&lt;/font&gt;" style="text;html=1;align=center;verticalAlign=middle;whiteSpace=wrap;rounded=0;" vertex="1" parent="1">
          <mxGeometry x="851" y="140" width="390" height="30" as="geometry" />
        </mxCell>
        <mxCell id="hp2ctFzZmuVKrJQSW8B8-54" value="" style="endArrow=none;html=1;rounded=0;exitX=0.5;exitY=0.5;exitDx=0;exitDy=0;exitPerimeter=0;entryX=0;entryY=0.5;entryDx=0;entryDy=0;" edge="1" parent="1" source="hp2ctFzZmuVKrJQSW8B8-2" target="hp2ctFzZmuVKrJQSW8B8-3">
          <mxGeometry width="50" height="50" relative="1" as="geometry">
            <mxPoint x="230" y="420" as="sourcePoint" />
            <mxPoint x="280" y="370" as="targetPoint" />
          </mxGeometry>
        </mxCell>
        <mxCell id="hp2ctFzZmuVKrJQSW8B8-55" value="" style="endArrow=none;html=1;rounded=0;exitX=0.5;exitY=0.5;exitDx=0;exitDy=0;exitPerimeter=0;entryX=0;entryY=0.5;entryDx=0;entryDy=0;" edge="1" parent="1" source="hp2ctFzZmuVKrJQSW8B8-2" target="hp2ctFzZmuVKrJQSW8B8-5">
          <mxGeometry width="50" height="50" relative="1" as="geometry">
            <mxPoint x="155" y="410" as="sourcePoint" />
            <mxPoint x="330" y="215" as="targetPoint" />
          </mxGeometry>
        </mxCell>
        <mxCell id="hp2ctFzZmuVKrJQSW8B8-56" value="" style="endArrow=none;html=1;rounded=0;exitX=0.5;exitY=0.5;exitDx=0;exitDy=0;exitPerimeter=0;entryX=0;entryY=0.5;entryDx=0;entryDy=0;" edge="1" parent="1" source="hp2ctFzZmuVKrJQSW8B8-2" target="hp2ctFzZmuVKrJQSW8B8-7">
          <mxGeometry width="50" height="50" relative="1" as="geometry">
            <mxPoint x="155" y="410" as="sourcePoint" />
            <mxPoint x="330" y="275" as="targetPoint" />
          </mxGeometry>
        </mxCell>
        <mxCell id="hp2ctFzZmuVKrJQSW8B8-57" value="" style="endArrow=none;html=1;rounded=0;exitX=0.5;exitY=0.5;exitDx=0;exitDy=0;exitPerimeter=0;entryX=0;entryY=0.5;entryDx=0;entryDy=0;" edge="1" parent="1" source="hp2ctFzZmuVKrJQSW8B8-2" target="hp2ctFzZmuVKrJQSW8B8-9">
          <mxGeometry width="50" height="50" relative="1" as="geometry">
            <mxPoint x="155" y="410" as="sourcePoint" />
            <mxPoint x="330" y="335" as="targetPoint" />
          </mxGeometry>
        </mxCell>
        <mxCell id="hp2ctFzZmuVKrJQSW8B8-58" value="" style="endArrow=none;html=1;rounded=0;exitX=0.5;exitY=0.5;exitDx=0;exitDy=0;exitPerimeter=0;entryX=0;entryY=0.25;entryDx=0;entryDy=0;" edge="1" parent="1" source="hp2ctFzZmuVKrJQSW8B8-2" target="hp2ctFzZmuVKrJQSW8B8-12">
          <mxGeometry width="50" height="50" relative="1" as="geometry">
            <mxPoint x="155" y="410" as="sourcePoint" />
            <mxPoint x="330" y="395" as="targetPoint" />
          </mxGeometry>
        </mxCell>
        <mxCell id="hp2ctFzZmuVKrJQSW8B8-59" value="" style="endArrow=none;html=1;rounded=0;exitX=0.5;exitY=0.5;exitDx=0;exitDy=0;exitPerimeter=0;entryX=0;entryY=0.25;entryDx=0;entryDy=0;" edge="1" parent="1" source="hp2ctFzZmuVKrJQSW8B8-2" target="hp2ctFzZmuVKrJQSW8B8-14">
          <mxGeometry width="50" height="50" relative="1" as="geometry">
            <mxPoint x="155" y="410" as="sourcePoint" />
            <mxPoint x="338" y="450" as="targetPoint" />
          </mxGeometry>
        </mxCell>
        <mxCell id="hp2ctFzZmuVKrJQSW8B8-60" value="" style="endArrow=none;html=1;rounded=0;exitX=0.5;exitY=0.5;exitDx=0;exitDy=0;exitPerimeter=0;entryX=0;entryY=0.25;entryDx=0;entryDy=0;" edge="1" parent="1" source="hp2ctFzZmuVKrJQSW8B8-2" target="hp2ctFzZmuVKrJQSW8B8-16">
          <mxGeometry width="50" height="50" relative="1" as="geometry">
            <mxPoint x="155" y="410" as="sourcePoint" />
            <mxPoint x="330" y="508" as="targetPoint" />
          </mxGeometry>
        </mxCell>
        <mxCell id="hp2ctFzZmuVKrJQSW8B8-61" value="" style="endArrow=none;html=1;rounded=0;exitX=0.5;exitY=0.5;exitDx=0;exitDy=0;exitPerimeter=0;entryX=0;entryY=0.25;entryDx=0;entryDy=0;" edge="1" parent="1" source="hp2ctFzZmuVKrJQSW8B8-2" target="hp2ctFzZmuVKrJQSW8B8-18">
          <mxGeometry width="50" height="50" relative="1" as="geometry">
            <mxPoint x="155" y="410" as="sourcePoint" />
            <mxPoint x="334" y="568" as="targetPoint" />
          </mxGeometry>
        </mxCell>
        <mxCell id="hp2ctFzZmuVKrJQSW8B8-62" value="" style="endArrow=none;html=1;rounded=0;exitX=0.5;exitY=0.5;exitDx=0;exitDy=0;exitPerimeter=0;entryX=0;entryY=0;entryDx=0;entryDy=0;" edge="1" parent="1" source="hp2ctFzZmuVKrJQSW8B8-2" target="hp2ctFzZmuVKrJQSW8B8-23">
          <mxGeometry width="50" height="50" relative="1" as="geometry">
            <mxPoint x="155" y="410" as="sourcePoint" />
            <mxPoint x="334" y="628" as="targetPoint" />
          </mxGeometry>
        </mxCell>
        <mxCell id="hp2ctFzZmuVKrJQSW8B8-63" value="" style="endArrow=none;html=1;rounded=0;exitX=0.5;exitY=0.5;exitDx=0;exitDy=0;exitPerimeter=0;entryX=0;entryY=0.5;entryDx=0;entryDy=0;" edge="1" parent="1" source="hp2ctFzZmuVKrJQSW8B8-19" target="hp2ctFzZmuVKrJQSW8B8-21">
          <mxGeometry width="50" height="50" relative="1" as="geometry">
            <mxPoint x="155" y="410" as="sourcePoint" />
            <mxPoint x="334" y="690" as="targetPoint" />
          </mxGeometry>
        </mxCell>
        <mxCell id="hp2ctFzZmuVKrJQSW8B8-64" value="" style="endArrow=none;html=1;rounded=0;exitX=0.5;exitY=0.5;exitDx=0;exitDy=0;exitPerimeter=0;entryX=0;entryY=0.75;entryDx=0;entryDy=0;" edge="1" parent="1" source="hp2ctFzZmuVKrJQSW8B8-19" target="hp2ctFzZmuVKrJQSW8B8-25">
          <mxGeometry width="50" height="50" relative="1" as="geometry">
            <mxPoint x="145" y="1000" as="sourcePoint" />
            <mxPoint x="338" y="885" as="targetPoint" />
          </mxGeometry>
        </mxCell>
        <mxCell id="hp2ctFzZmuVKrJQSW8B8-65" value="" style="endArrow=none;html=1;rounded=0;exitX=0.5;exitY=0.5;exitDx=0;exitDy=0;exitPerimeter=0;entryX=0;entryY=0.5;entryDx=0;entryDy=0;" edge="1" parent="1" source="hp2ctFzZmuVKrJQSW8B8-19" target="hp2ctFzZmuVKrJQSW8B8-27">
          <mxGeometry width="50" height="50" relative="1" as="geometry">
            <mxPoint x="145" y="1000" as="sourcePoint" />
            <mxPoint x="338" y="950" as="targetPoint" />
          </mxGeometry>
        </mxCell>
        <mxCell id="hp2ctFzZmuVKrJQSW8B8-66" value="" style="endArrow=none;html=1;rounded=0;exitX=0.5;exitY=0.5;exitDx=0;exitDy=0;exitPerimeter=0;entryX=0;entryY=0.25;entryDx=0;entryDy=0;" edge="1" parent="1" source="hp2ctFzZmuVKrJQSW8B8-19" target="hp2ctFzZmuVKrJQSW8B8-29">
          <mxGeometry width="50" height="50" relative="1" as="geometry">
            <mxPoint x="145" y="1000" as="sourcePoint" />
            <mxPoint x="338" y="1005" as="targetPoint" />
          </mxGeometry>
        </mxCell>
        <mxCell id="hp2ctFzZmuVKrJQSW8B8-67" value="" style="endArrow=none;html=1;rounded=0;exitX=0.5;exitY=0.5;exitDx=0;exitDy=0;exitPerimeter=0;entryX=0;entryY=0.5;entryDx=0;entryDy=0;" edge="1" parent="1" source="hp2ctFzZmuVKrJQSW8B8-34" target="hp2ctFzZmuVKrJQSW8B8-36">
          <mxGeometry width="50" height="50" relative="1" as="geometry">
            <mxPoint x="145" y="1000" as="sourcePoint" />
            <mxPoint x="338" y="1058" as="targetPoint" />
          </mxGeometry>
        </mxCell>
        <mxCell id="hp2ctFzZmuVKrJQSW8B8-68" value="" style="endArrow=none;html=1;rounded=0;exitX=0.5;exitY=0.5;exitDx=0;exitDy=0;exitPerimeter=0;entryX=0;entryY=0.5;entryDx=0;entryDy=0;" edge="1" parent="1" source="hp2ctFzZmuVKrJQSW8B8-34" target="hp2ctFzZmuVKrJQSW8B8-38">
          <mxGeometry width="50" height="50" relative="1" as="geometry">
            <mxPoint x="145" y="1289" as="sourcePoint" />
            <mxPoint x="342" y="1204" as="targetPoint" />
          </mxGeometry>
        </mxCell>
        <mxCell id="hp2ctFzZmuVKrJQSW8B8-69" value="" style="endArrow=none;html=1;rounded=0;exitX=0.5;exitY=0.5;exitDx=0;exitDy=0;exitPerimeter=0;entryX=0;entryY=0.25;entryDx=0;entryDy=0;" edge="1" parent="1" source="hp2ctFzZmuVKrJQSW8B8-34" target="hp2ctFzZmuVKrJQSW8B8-40">
          <mxGeometry width="50" height="50" relative="1" as="geometry">
            <mxPoint x="145" y="1289" as="sourcePoint" />
            <mxPoint x="342" y="1265" as="targetPoint" />
          </mxGeometry>
        </mxCell>
        <mxCell id="hp2ctFzZmuVKrJQSW8B8-70" value="" style="endArrow=none;html=1;rounded=0;exitX=0.5;exitY=0.5;exitDx=0;exitDy=0;exitPerimeter=0;entryX=0;entryY=0.25;entryDx=0;entryDy=0;" edge="1" parent="1" source="hp2ctFzZmuVKrJQSW8B8-34" target="hp2ctFzZmuVKrJQSW8B8-42">
          <mxGeometry width="50" height="50" relative="1" as="geometry">
            <mxPoint x="145" y="1289" as="sourcePoint" />
            <mxPoint x="344" y="1318" as="targetPoint" />
          </mxGeometry>
        </mxCell>
        <mxCell id="hp2ctFzZmuVKrJQSW8B8-71" value="" style="endArrow=none;dashed=1;html=1;rounded=0;exitX=1;exitY=0.5;exitDx=0;exitDy=0;entryX=0;entryY=0.5;entryDx=0;entryDy=0;" edge="1" parent="1" source="hp2ctFzZmuVKrJQSW8B8-29" target="hp2ctFzZmuVKrJQSW8B8-31">
          <mxGeometry width="50" height="50" relative="1" as="geometry">
            <mxPoint x="856" y="1170" as="sourcePoint" />
            <mxPoint x="906" y="1120" as="targetPoint" />
          </mxGeometry>
        </mxCell>
        <mxCell id="hp2ctFzZmuVKrJQSW8B8-72" value="" style="endArrow=none;dashed=1;html=1;rounded=0;exitX=1;exitY=1;exitDx=0;exitDy=0;entryX=0;entryY=0.5;entryDx=0;entryDy=0;" edge="1" parent="1" source="hp2ctFzZmuVKrJQSW8B8-29" target="hp2ctFzZmuVKrJQSW8B8-33">
          <mxGeometry width="50" height="50" relative="1" as="geometry">
            <mxPoint x="636" y="1055" as="sourcePoint" />
            <mxPoint x="800" y="1035" as="targetPoint" />
          </mxGeometry>
        </mxCell>
        <mxCell id="hp2ctFzZmuVKrJQSW8B8-73" value="" style="endArrow=none;dashed=1;html=1;rounded=0;exitX=1;exitY=0;exitDx=0;exitDy=0;entryX=0;entryY=0.5;entryDx=0;entryDy=0;" edge="1" parent="1" source="hp2ctFzZmuVKrJQSW8B8-36" target="hp2ctFzZmuVKrJQSW8B8-44">
          <mxGeometry width="50" height="50" relative="1" as="geometry">
            <mxPoint x="636" y="1070" as="sourcePoint" />
            <mxPoint x="802" y="1105" as="targetPoint" />
          </mxGeometry>
        </mxCell>
        <mxCell id="hp2ctFzZmuVKrJQSW8B8-74" value="" style="endArrow=none;dashed=1;html=1;rounded=0;exitX=1;exitY=1;exitDx=0;exitDy=0;entryX=0;entryY=0.25;entryDx=0;entryDy=0;" edge="1" parent="1" source="hp2ctFzZmuVKrJQSW8B8-36" target="hp2ctFzZmuVKrJQSW8B8-52">
          <mxGeometry width="50" height="50" relative="1" as="geometry">
            <mxPoint x="640" y="1179" as="sourcePoint" />
            <mxPoint x="950" y="1165" as="targetPoint" />
          </mxGeometry>
        </mxCell>
        <mxCell id="hp2ctFzZmuVKrJQSW8B8-76" value="" style="endArrow=none;dashed=1;html=1;rounded=0;edgeStyle=orthogonalEdgeStyle;exitX=1;exitY=0.5;exitDx=0;exitDy=0;entryX=0.5;entryY=0;entryDx=0;entryDy=0;" edge="1" parent="1" source="hp2ctFzZmuVKrJQSW8B8-3" target="hp2ctFzZmuVKrJQSW8B8-49">
          <mxGeometry width="50" height="50" relative="1" as="geometry">
            <mxPoint x="950" y="470" as="sourcePoint" />
            <mxPoint x="1000" y="420" as="targetPoint" />
            <Array as="points">
              <mxPoint x="626" y="230" />
              <mxPoint x="1388" y="230" />
            </Array>
          </mxGeometry>
        </mxCell>
        <mxCell id="hp2ctFzZmuVKrJQSW8B8-77" value="" style="endArrow=none;dashed=1;html=1;rounded=0;edgeStyle=orthogonalEdgeStyle;exitX=1;exitY=0.5;exitDx=0;exitDy=0;entryX=0.378;entryY=0.029;entryDx=0;entryDy=0;entryPerimeter=0;" edge="1" parent="1" source="hp2ctFzZmuVKrJQSW8B8-5" target="hp2ctFzZmuVKrJQSW8B8-49">
          <mxGeometry width="50" height="50" relative="1" as="geometry">
            <mxPoint x="700" y="252.5" as="sourcePoint" />
            <mxPoint x="1462" y="757.5" as="targetPoint" />
            <Array as="points">
              <mxPoint x="1340" y="265" />
              <mxPoint x="1340" y="713" />
            </Array>
          </mxGeometry>
        </mxCell>
        <mxCell id="hp2ctFzZmuVKrJQSW8B8-78" value="" style="endArrow=none;dashed=1;html=1;rounded=0;edgeStyle=orthogonalEdgeStyle;exitX=1;exitY=0.5;exitDx=0;exitDy=0;entryX=0.261;entryY=0.115;entryDx=0;entryDy=0;entryPerimeter=0;" edge="1" parent="1" source="hp2ctFzZmuVKrJQSW8B8-7" target="hp2ctFzZmuVKrJQSW8B8-49">
          <mxGeometry width="50" height="50" relative="1" as="geometry">
            <mxPoint x="636" y="275" as="sourcePoint" />
            <mxPoint x="1369" y="723" as="targetPoint" />
            <Array as="points">
              <mxPoint x="626" y="300" />
              <mxPoint x="1320" y="300" />
              <mxPoint x="1320" y="723" />
              <mxPoint x="1332" y="723" />
            </Array>
          </mxGeometry>
        </mxCell>
        <mxCell id="hp2ctFzZmuVKrJQSW8B8-79" value="" style="endArrow=none;dashed=1;html=1;rounded=0;edgeStyle=orthogonalEdgeStyle;exitX=1;exitY=0.5;exitDx=0;exitDy=0;entryX=0.414;entryY=0.048;entryDx=0;entryDy=0;entryPerimeter=0;" edge="1" parent="1" source="hp2ctFzZmuVKrJQSW8B8-9" target="hp2ctFzZmuVKrJQSW8B8-49">
          <mxGeometry width="50" height="50" relative="1" as="geometry">
            <mxPoint x="910" y="600" as="sourcePoint" />
            <mxPoint x="960" y="550" as="targetPoint" />
            <Array as="points">
              <mxPoint x="1368" y="385" />
            </Array>
          </mxGeometry>
        </mxCell>
        <mxCell id="hp2ctFzZmuVKrJQSW8B8-80" value="" style="endArrow=none;dashed=1;html=1;rounded=0;edgeStyle=orthogonalEdgeStyle;exitX=1;exitY=0.5;exitDx=0;exitDy=0;entryX=0.648;entryY=0.039;entryDx=0;entryDy=0;entryPerimeter=0;" edge="1" parent="1" source="hp2ctFzZmuVKrJQSW8B8-11" target="hp2ctFzZmuVKrJQSW8B8-49">
          <mxGeometry width="50" height="50" relative="1" as="geometry">
            <mxPoint x="636" y="395" as="sourcePoint" />
            <mxPoint x="1378" y="725" as="targetPoint" />
            <Array as="points">
              <mxPoint x="1430" y="445" />
              <mxPoint x="1430" y="714" />
            </Array>
          </mxGeometry>
        </mxCell>
        <mxCell id="hp2ctFzZmuVKrJQSW8B8-81" value="" style="endArrow=none;dashed=1;html=1;rounded=0;edgeStyle=orthogonalEdgeStyle;exitX=1;exitY=0.75;exitDx=0;exitDy=0;entryX=0.58;entryY=0.048;entryDx=0;entryDy=0;entryPerimeter=0;" edge="1" parent="1" source="hp2ctFzZmuVKrJQSW8B8-14" target="hp2ctFzZmuVKrJQSW8B8-49">
          <mxGeometry width="50" height="50" relative="1" as="geometry">
            <mxPoint x="636" y="455" as="sourcePoint" />
            <mxPoint x="1433" y="724" as="targetPoint" />
            <Array as="points">
              <mxPoint x="1410" y="513" />
              <mxPoint x="1410" y="724" />
              <mxPoint x="1407" y="724" />
            </Array>
          </mxGeometry>
        </mxCell>
        <mxCell id="hp2ctFzZmuVKrJQSW8B8-82" value="" style="endArrow=none;dashed=1;html=1;rounded=0;edgeStyle=orthogonalEdgeStyle;exitX=1;exitY=0.75;exitDx=0;exitDy=0;entryX=0.721;entryY=0.067;entryDx=0;entryDy=0;entryPerimeter=0;" edge="1" parent="1" source="hp2ctFzZmuVKrJQSW8B8-16" target="hp2ctFzZmuVKrJQSW8B8-49">
          <mxGeometry width="50" height="50" relative="1" as="geometry">
            <mxPoint x="638" y="523" as="sourcePoint" />
            <mxPoint x="1417" y="725" as="targetPoint" />
            <Array as="points">
              <mxPoint x="1420" y="573" />
              <mxPoint x="1420" y="734" />
              <mxPoint x="1417" y="734" />
              <mxPoint x="1417" y="717" />
            </Array>
          </mxGeometry>
        </mxCell>
        <mxCell id="hp2ctFzZmuVKrJQSW8B8-83" value="" style="endArrow=none;dashed=1;html=1;rounded=0;edgeStyle=orthogonalEdgeStyle;exitX=1;exitY=0.5;exitDx=0;exitDy=0;entryX=0;entryY=0;entryDx=0;entryDy=0;" edge="1" parent="1" source="hp2ctFzZmuVKrJQSW8B8-18" target="hp2ctFzZmuVKrJQSW8B8-50">
          <mxGeometry width="50" height="50" relative="1" as="geometry">
            <mxPoint x="920" y="680" as="sourcePoint" />
            <mxPoint x="970" y="630" as="targetPoint" />
          </mxGeometry>
        </mxCell>
        <mxCell id="hp2ctFzZmuVKrJQSW8B8-84" value="" style="endArrow=none;dashed=1;html=1;rounded=0;edgeStyle=orthogonalEdgeStyle;exitX=1;exitY=0.75;exitDx=0;exitDy=0;entryX=0.241;entryY=0.962;entryDx=0;entryDy=0;entryPerimeter=0;" edge="1" parent="1" source="hp2ctFzZmuVKrJQSW8B8-21" target="hp2ctFzZmuVKrJQSW8B8-49">
          <mxGeometry width="50" height="50" relative="1" as="geometry">
            <mxPoint x="636" y="635" as="sourcePoint" />
            <mxPoint x="1300" y="735" as="targetPoint" />
          </mxGeometry>
        </mxCell>
        <mxCell id="hp2ctFzZmuVKrJQSW8B8-85" value="" style="endArrow=none;dashed=1;html=1;rounded=0;edgeStyle=orthogonalEdgeStyle;exitX=1;exitY=0.75;exitDx=0;exitDy=0;entryX=0.321;entryY=1.01;entryDx=0;entryDy=0;entryPerimeter=0;" edge="1" parent="1" source="hp2ctFzZmuVKrJQSW8B8-25" target="hp2ctFzZmuVKrJQSW8B8-49">
          <mxGeometry width="50" height="50" relative="1" as="geometry">
            <mxPoint x="636" y="883" as="sourcePoint" />
            <mxPoint x="1337" y="816" as="targetPoint" />
          </mxGeometry>
        </mxCell>
        <mxCell id="hp2ctFzZmuVKrJQSW8B8-86" value="" style="endArrow=none;dashed=1;html=1;rounded=0;edgeStyle=orthogonalEdgeStyle;exitX=1;exitY=0.75;exitDx=0;exitDy=0;entryX=0.394;entryY=1.02;entryDx=0;entryDy=0;entryPerimeter=0;" edge="1" parent="1" source="hp2ctFzZmuVKrJQSW8B8-27" target="hp2ctFzZmuVKrJQSW8B8-49">
          <mxGeometry width="50" height="50" relative="1" as="geometry">
            <mxPoint x="636" y="940" as="sourcePoint" />
            <mxPoint x="1356" y="821" as="targetPoint" />
          </mxGeometry>
        </mxCell>
        <mxCell id="hp2ctFzZmuVKrJQSW8B8-87" value="" style="endArrow=none;dashed=1;html=1;rounded=0;edgeStyle=orthogonalEdgeStyle;exitX=1;exitY=0.75;exitDx=0;exitDy=0;entryX=0.596;entryY=1;entryDx=0;entryDy=0;entryPerimeter=0;" edge="1" parent="1" source="hp2ctFzZmuVKrJQSW8B8-29" target="hp2ctFzZmuVKrJQSW8B8-49">
          <mxGeometry width="50" height="50" relative="1" as="geometry">
            <mxPoint x="636" y="1003" as="sourcePoint" />
            <mxPoint x="1373" y="822" as="targetPoint" />
          </mxGeometry>
        </mxCell>
        <mxCell id="hp2ctFzZmuVKrJQSW8B8-88" value="" style="endArrow=none;dashed=1;html=1;rounded=0;edgeStyle=orthogonalEdgeStyle;exitX=1;exitY=0.5;exitDx=0;exitDy=0;entryX=0.769;entryY=0.924;entryDx=0;entryDy=0;entryPerimeter=0;" edge="1" parent="1" source="hp2ctFzZmuVKrJQSW8B8-36" target="hp2ctFzZmuVKrJQSW8B8-49">
          <mxGeometry width="50" height="50" relative="1" as="geometry">
            <mxPoint x="636" y="1063" as="sourcePoint" />
            <mxPoint x="1421" y="820" as="targetPoint" />
          </mxGeometry>
        </mxCell>
        <mxCell id="hp2ctFzZmuVKrJQSW8B8-89" value="" style="endArrow=none;dashed=1;html=1;rounded=0;edgeStyle=orthogonalEdgeStyle;exitX=1;exitY=0.75;exitDx=0;exitDy=0;entryX=1;entryY=1;entryDx=0;entryDy=0;" edge="1" parent="1" source="hp2ctFzZmuVKrJQSW8B8-38" target="hp2ctFzZmuVKrJQSW8B8-50">
          <mxGeometry width="50" height="50" relative="1" as="geometry">
            <mxPoint x="640" y="1194" as="sourcePoint" />
            <mxPoint x="1461" y="812" as="targetPoint" />
            <Array as="points">
              <mxPoint x="636" y="1270" />
              <mxPoint x="1486" y="1270" />
            </Array>
          </mxGeometry>
        </mxCell>
        <mxCell id="hp2ctFzZmuVKrJQSW8B8-92" value="" style="endArrow=none;dashed=1;html=1;rounded=0;edgeStyle=orthogonalEdgeStyle;entryX=0.5;entryY=1;entryDx=0;entryDy=0;" edge="1" parent="1" source="hp2ctFzZmuVKrJQSW8B8-40" target="hp2ctFzZmuVKrJQSW8B8-49">
          <mxGeometry width="50" height="50" relative="1" as="geometry">
            <mxPoint x="760" y="1290" as="sourcePoint" />
            <mxPoint x="810" y="1240" as="targetPoint" />
          </mxGeometry>
        </mxCell>
        <mxCell id="hp2ctFzZmuVKrJQSW8B8-93" value="" style="endArrow=none;dashed=1;html=1;rounded=0;edgeStyle=orthogonalEdgeStyle;entryX=0.957;entryY=0.638;entryDx=0;entryDy=0;exitX=1;exitY=0.75;exitDx=0;exitDy=0;entryPerimeter=0;" edge="1" parent="1" source="hp2ctFzZmuVKrJQSW8B8-42" target="hp2ctFzZmuVKrJQSW8B8-49">
          <mxGeometry width="50" height="50" relative="1" as="geometry">
            <mxPoint x="646" y="1315" as="sourcePoint" />
            <mxPoint x="1398" y="820" as="targetPoint" />
            <Array as="points">
              <mxPoint x="1500" y="1372" />
              <mxPoint x="1500" y="820" />
              <mxPoint x="1496" y="820" />
            </Array>
          </mxGeometry>
        </mxCell>
        <mxCell id="hp2ctFzZmuVKrJQSW8B8-94" value="&amp;lt;&amp;lt;include&amp;gt;&amp;gt;&lt;span style=&quot;color: rgba(0, 0, 0, 0); font-family: monospace; font-size: 0px; text-align: start; text-wrap-mode: nowrap;&quot;&gt;%3CmxGraphModel%3E%3Croot%3E%3CmxCell%20id%3D%220%22%2F%3E%3CmxCell%20id%3D%221%22%20parent%3D%220%22%2F%3E%3CmxCell%20id%3D%222%22%20value%3D%22%22%20style%3D%22endArrow%3Dnone%3Bdashed%3D1%3Bhtml%3D1%3Brounded%3D0%3BedgeStyle%3DorthogonalEdgeStyle%3BentryX%3D0.5%3BentryY%3D1%3BentryDx%3D0%3BentryDy%3D0%3B%22%20edge%3D%221%22%20parent%3D%221%22%3E%3CmxGeometry%20width%3D%2250%22%20height%3D%2250%22%20relative%3D%221%22%20as%3D%22geometry%22%3E%3CmxPoint%20x%3D%22636%22%20y%3D%221305%22%20as%3D%22sourcePoint%22%2F%3E%3CmxPoint%20x%3D%221388%22%20y%3D%22810%22%20as%3D%22targetPoint%22%2F%3E%3C%2FmxGeometry%3E%3C%2FmxCell%3E%3C%2Froot%3E%3C%2FmxGraphModel%3E&lt;/span&gt;" style="text;html=1;align=center;verticalAlign=middle;whiteSpace=wrap;rounded=0;" vertex="1" parent="1">
          <mxGeometry x="827" y="200" width="60" height="30" as="geometry" />
        </mxCell>
        <mxCell id="hp2ctFzZmuVKrJQSW8B8-95" value="&amp;lt;&amp;lt;include&amp;gt;&amp;gt;&lt;span style=&quot;color: rgba(0, 0, 0, 0); font-family: monospace; font-size: 0px; text-align: start; text-wrap-mode: nowrap;&quot;&gt;%3CmxGraphModel%3E%3Croot%3E%3CmxCell%20id%3D%220%22%2F%3E%3CmxCell%20id%3D%221%22%20parent%3D%220%22%2F%3E%3CmxCell%20id%3D%222%22%20value%3D%22%22%20style%3D%22endArrow%3Dnone%3Bdashed%3D1%3Bhtml%3D1%3Brounded%3D0%3BedgeStyle%3DorthogonalEdgeStyle%3BentryX%3D0.5%3BentryY%3D1%3BentryDx%3D0%3BentryDy%3D0%3B%22%20edge%3D%221%22%20parent%3D%221%22%3E%3CmxGeometry%20width%3D%2250%22%20height%3D%2250%22%20relative%3D%221%22%20as%3D%22geometry%22%3E%3CmxPoint%20x%3D%22636%22%20y%3D%221305%22%20as%3D%22sourcePoint%22%2F%3E%3CmxPoint%20x%3D%221388%22%20y%3D%22810%22%20as%3D%22targetPoint%22%2F%3E%3C%2FmxGeometry%3E%3C%2FmxCell%3E%3C%2Froot%3E%3C%2FmxGraphModel%3E&lt;/span&gt;" style="text;html=1;align=center;verticalAlign=middle;whiteSpace=wrap;rounded=0;" vertex="1" parent="1">
          <mxGeometry x="970" y="237" width="60" height="30" as="geometry" />
        </mxCell>
        <mxCell id="hp2ctFzZmuVKrJQSW8B8-96" value="&amp;lt;&amp;lt;include&amp;gt;&amp;gt;&lt;span style=&quot;color: rgba(0, 0, 0, 0); font-family: monospace; font-size: 0px; text-align: start; text-wrap-mode: nowrap;&quot;&gt;%3CmxGraphModel%3E%3Croot%3E%3CmxCell%20id%3D%220%22%2F%3E%3CmxCell%20id%3D%221%22%20parent%3D%220%22%2F%3E%3CmxCell%20id%3D%222%22%20value%3D%22%22%20style%3D%22endArrow%3Dnone%3Bdashed%3D1%3Bhtml%3D1%3Brounded%3D0%3BedgeStyle%3DorthogonalEdgeStyle%3BentryX%3D0.5%3BentryY%3D1%3BentryDx%3D0%3BentryDy%3D0%3B%22%20edge%3D%221%22%20parent%3D%221%22%3E%3CmxGeometry%20width%3D%2250%22%20height%3D%2250%22%20relative%3D%221%22%20as%3D%22geometry%22%3E%3CmxPoint%20x%3D%22636%22%20y%3D%221305%22%20as%3D%22sourcePoint%22%2F%3E%3CmxPoint%20x%3D%221388%22%20y%3D%22810%22%20as%3D%22targetPoint%22%2F%3E%3C%2FmxGeometry%3E%3C%2FmxCell%3E%3C%2Froot%3E%3C%2FmxGraphModel%3E&lt;/span&gt;" style="text;html=1;align=center;verticalAlign=middle;whiteSpace=wrap;rounded=0;" vertex="1" parent="1">
          <mxGeometry x="980" y="273" width="60" height="30" as="geometry" />
        </mxCell>
        <mxCell id="hp2ctFzZmuVKrJQSW8B8-97" value="&amp;lt;&amp;lt;include&amp;gt;&amp;gt;&lt;span style=&quot;color: rgba(0, 0, 0, 0); font-family: monospace; font-size: 0px; text-align: start; text-wrap-mode: nowrap;&quot;&gt;%3CmxGraphModel%3E%3Croot%3E%3CmxCell%20id%3D%220%22%2F%3E%3CmxCell%20id%3D%221%22%20parent%3D%220%22%2F%3E%3CmxCell%20id%3D%222%22%20value%3D%22%22%20style%3D%22endArrow%3Dnone%3Bdashed%3D1%3Bhtml%3D1%3Brounded%3D0%3BedgeStyle%3DorthogonalEdgeStyle%3BentryX%3D0.5%3BentryY%3D1%3BentryDx%3D0%3BentryDy%3D0%3B%22%20edge%3D%221%22%20parent%3D%221%22%3E%3CmxGeometry%20width%3D%2250%22%20height%3D%2250%22%20relative%3D%221%22%20as%3D%22geometry%22%3E%3CmxPoint%20x%3D%22636%22%20y%3D%221305%22%20as%3D%22sourcePoint%22%2F%3E%3CmxPoint%20x%3D%221388%22%20y%3D%22810%22%20as%3D%22targetPoint%22%2F%3E%3C%2FmxGeometry%3E%3C%2FmxCell%3E%3C%2Froot%3E%3C%2FmxGraphModel%3E&lt;/span&gt;" style="text;html=1;align=center;verticalAlign=middle;whiteSpace=wrap;rounded=0;" vertex="1" parent="1">
          <mxGeometry x="990" y="357" width="60" height="30" as="geometry" />
        </mxCell>
        <mxCell id="hp2ctFzZmuVKrJQSW8B8-98" value="&amp;lt;&amp;lt;include&amp;gt;&amp;gt;&lt;span style=&quot;color: rgba(0, 0, 0, 0); font-family: monospace; font-size: 0px; text-align: start; text-wrap-mode: nowrap;&quot;&gt;%3CmxGraphModel%3E%3Croot%3E%3CmxCell%20id%3D%220%22%2F%3E%3CmxCell%20id%3D%221%22%20parent%3D%220%22%2F%3E%3CmxCell%20id%3D%222%22%20value%3D%22%22%20style%3D%22endArrow%3Dnone%3Bdashed%3D1%3Bhtml%3D1%3Brounded%3D0%3BedgeStyle%3DorthogonalEdgeStyle%3BentryX%3D0.5%3BentryY%3D1%3BentryDx%3D0%3BentryDy%3D0%3B%22%20edge%3D%221%22%20parent%3D%221%22%3E%3CmxGeometry%20width%3D%2250%22%20height%3D%2250%22%20relative%3D%221%22%20as%3D%22geometry%22%3E%3CmxPoint%20x%3D%22636%22%20y%3D%221305%22%20as%3D%22sourcePoint%22%2F%3E%3CmxPoint%20x%3D%221388%22%20y%3D%22810%22%20as%3D%22targetPoint%22%2F%3E%3C%2FmxGeometry%3E%3C%2FmxCell%3E%3C%2Froot%3E%3C%2FmxGraphModel%3E&lt;/span&gt;" style="text;html=1;align=center;verticalAlign=middle;whiteSpace=wrap;rounded=0;" vertex="1" parent="1">
          <mxGeometry x="1000" y="419" width="60" height="30" as="geometry" />
        </mxCell>
        <mxCell id="hp2ctFzZmuVKrJQSW8B8-99" value="&amp;lt;&amp;lt;include&amp;gt;&amp;gt;&lt;span style=&quot;color: rgba(0, 0, 0, 0); font-family: monospace; font-size: 0px; text-align: start; text-wrap-mode: nowrap;&quot;&gt;%3CmxGraphModel%3E%3Croot%3E%3CmxCell%20id%3D%220%22%2F%3E%3CmxCell%20id%3D%221%22%20parent%3D%220%22%2F%3E%3CmxCell%20id%3D%222%22%20value%3D%22%22%20style%3D%22endArrow%3Dnone%3Bdashed%3D1%3Bhtml%3D1%3Brounded%3D0%3BedgeStyle%3DorthogonalEdgeStyle%3BentryX%3D0.5%3BentryY%3D1%3BentryDx%3D0%3BentryDy%3D0%3B%22%20edge%3D%221%22%20parent%3D%221%22%3E%3CmxGeometry%20width%3D%2250%22%20height%3D%2250%22%20relative%3D%221%22%20as%3D%22geometry%22%3E%3CmxPoint%20x%3D%22636%22%20y%3D%221305%22%20as%3D%22sourcePoint%22%2F%3E%3CmxPoint%20x%3D%221388%22%20y%3D%22810%22%20as%3D%22targetPoint%22%2F%3E%3C%2FmxGeometry%3E%3C%2FmxCell%3E%3C%2Froot%3E%3C%2FmxGraphModel%3E&lt;/span&gt;" style="text;html=1;align=center;verticalAlign=middle;whiteSpace=wrap;rounded=0;" vertex="1" parent="1">
          <mxGeometry x="1010" y="484" width="60" height="30" as="geometry" />
        </mxCell>
        <mxCell id="hp2ctFzZmuVKrJQSW8B8-100" value="&amp;lt;&amp;lt;include&amp;gt;&amp;gt;&lt;span style=&quot;color: rgba(0, 0, 0, 0); font-family: monospace; font-size: 0px; text-align: start; text-wrap-mode: nowrap;&quot;&gt;%3CmxGraphModel%3E%3Croot%3E%3CmxCell%20id%3D%220%22%2F%3E%3CmxCell%20id%3D%221%22%20parent%3D%220%22%2F%3E%3CmxCell%20id%3D%222%22%20value%3D%22%22%20style%3D%22endArrow%3Dnone%3Bdashed%3D1%3Bhtml%3D1%3Brounded%3D0%3BedgeStyle%3DorthogonalEdgeStyle%3BentryX%3D0.5%3BentryY%3D1%3BentryDx%3D0%3BentryDy%3D0%3B%22%20edge%3D%221%22%20parent%3D%221%22%3E%3CmxGeometry%20width%3D%2250%22%20height%3D%2250%22%20relative%3D%221%22%20as%3D%22geometry%22%3E%3CmxPoint%20x%3D%22636%22%20y%3D%221305%22%20as%3D%22sourcePoint%22%2F%3E%3CmxPoint%20x%3D%221388%22%20y%3D%22810%22%20as%3D%22targetPoint%22%2F%3E%3C%2FmxGeometry%3E%3C%2FmxCell%3E%3C%2Froot%3E%3C%2FmxGraphModel%3E&lt;/span&gt;" style="text;html=1;align=center;verticalAlign=middle;whiteSpace=wrap;rounded=0;" vertex="1" parent="1">
          <mxGeometry x="1020" y="547" width="60" height="30" as="geometry" />
        </mxCell>
        <mxCell id="hp2ctFzZmuVKrJQSW8B8-101" value="&amp;lt;&amp;lt;include&amp;gt;&amp;gt;&lt;span style=&quot;color: rgba(0, 0, 0, 0); font-family: monospace; font-size: 0px; text-align: start; text-wrap-mode: nowrap;&quot;&gt;%3CmxGraphModel%3E%3Croot%3E%3CmxCell%20id%3D%220%22%2F%3E%3CmxCell%20id%3D%221%22%20parent%3D%220%22%2F%3E%3CmxCell%20id%3D%222%22%20value%3D%22%22%20style%3D%22endArrow%3Dnone%3Bdashed%3D1%3Bhtml%3D1%3Brounded%3D0%3BedgeStyle%3DorthogonalEdgeStyle%3BentryX%3D0.5%3BentryY%3D1%3BentryDx%3D0%3BentryDy%3D0%3B%22%20edge%3D%221%22%20parent%3D%221%22%3E%3CmxGeometry%20width%3D%2250%22%20height%3D%2250%22%20relative%3D%221%22%20as%3D%22geometry%22%3E%3CmxPoint%20x%3D%22636%22%20y%3D%221305%22%20as%3D%22sourcePoint%22%2F%3E%3CmxPoint%20x%3D%221388%22%20y%3D%22810%22%20as%3D%22targetPoint%22%2F%3E%3C%2FmxGeometry%3E%3C%2FmxCell%3E%3C%2Froot%3E%3C%2FmxGraphModel%3E&lt;/span&gt;" style="text;html=1;align=center;verticalAlign=middle;whiteSpace=wrap;rounded=0;" vertex="1" parent="1">
          <mxGeometry x="1030" y="600" width="60" height="30" as="geometry" />
        </mxCell>
        <mxCell id="hp2ctFzZmuVKrJQSW8B8-102" value="&amp;lt;&amp;lt;include&amp;gt;&amp;gt;&lt;span style=&quot;color: rgba(0, 0, 0, 0); font-family: monospace; font-size: 0px; text-align: start; text-wrap-mode: nowrap;&quot;&gt;%3CmxGraphModel%3E%3Croot%3E%3CmxCell%20id%3D%220%22%2F%3E%3CmxCell%20id%3D%221%22%20parent%3D%220%22%2F%3E%3CmxCell%20id%3D%222%22%20value%3D%22%22%20style%3D%22endArrow%3Dnone%3Bdashed%3D1%3Bhtml%3D1%3Brounded%3D0%3BedgeStyle%3DorthogonalEdgeStyle%3BentryX%3D0.5%3BentryY%3D1%3BentryDx%3D0%3BentryDy%3D0%3B%22%20edge%3D%221%22%20parent%3D%221%22%3E%3CmxGeometry%20width%3D%2250%22%20height%3D%2250%22%20relative%3D%221%22%20as%3D%22geometry%22%3E%3CmxPoint%20x%3D%22636%22%20y%3D%221305%22%20as%3D%22sourcePoint%22%2F%3E%3CmxPoint%20x%3D%221388%22%20y%3D%22810%22%20as%3D%22targetPoint%22%2F%3E%3C%2FmxGeometry%3E%3C%2FmxCell%3E%3C%2Froot%3E%3C%2FmxGraphModel%3E&lt;/span&gt;" style="text;html=1;align=center;verticalAlign=middle;whiteSpace=wrap;rounded=0;" vertex="1" parent="1">
          <mxGeometry x="1040" y="845" width="60" height="30" as="geometry" />
        </mxCell>
        <mxCell id="hp2ctFzZmuVKrJQSW8B8-103" value="&amp;lt;&amp;lt;include&amp;gt;&amp;gt;&lt;span style=&quot;color: rgba(0, 0, 0, 0); font-family: monospace; font-size: 0px; text-align: start; text-wrap-mode: nowrap;&quot;&gt;%3CmxGraphModel%3E%3Croot%3E%3CmxCell%20id%3D%220%22%2F%3E%3CmxCell%20id%3D%221%22%20parent%3D%220%22%2F%3E%3CmxCell%20id%3D%222%22%20value%3D%22%22%20style%3D%22endArrow%3Dnone%3Bdashed%3D1%3Bhtml%3D1%3Brounded%3D0%3BedgeStyle%3DorthogonalEdgeStyle%3BentryX%3D0.5%3BentryY%3D1%3BentryDx%3D0%3BentryDy%3D0%3B%22%20edge%3D%221%22%20parent%3D%221%22%3E%3CmxGeometry%20width%3D%2250%22%20height%3D%2250%22%20relative%3D%221%22%20as%3D%22geometry%22%3E%3CmxPoint%20x%3D%22636%22%20y%3D%221305%22%20as%3D%22sourcePoint%22%2F%3E%3CmxPoint%20x%3D%221388%22%20y%3D%22810%22%20as%3D%22targetPoint%22%2F%3E%3C%2FmxGeometry%3E%3C%2FmxCell%3E%3C%2Froot%3E%3C%2FmxGraphModel%3E&lt;/span&gt;" style="text;html=1;align=center;verticalAlign=middle;whiteSpace=wrap;rounded=0;" vertex="1" parent="1">
          <mxGeometry x="1050" y="904" width="60" height="30" as="geometry" />
        </mxCell>
        <mxCell id="hp2ctFzZmuVKrJQSW8B8-104" value="&amp;lt;&amp;lt;include&amp;gt;&amp;gt;&lt;span style=&quot;color: rgba(0, 0, 0, 0); font-family: monospace; font-size: 0px; text-align: start; text-wrap-mode: nowrap;&quot;&gt;%3CmxGraphModel%3E%3Croot%3E%3CmxCell%20id%3D%220%22%2F%3E%3CmxCell%20id%3D%221%22%20parent%3D%220%22%2F%3E%3CmxCell%20id%3D%222%22%20value%3D%22%22%20style%3D%22endArrow%3Dnone%3Bdashed%3D1%3Bhtml%3D1%3Brounded%3D0%3BedgeStyle%3DorthogonalEdgeStyle%3BentryX%3D0.5%3BentryY%3D1%3BentryDx%3D0%3BentryDy%3D0%3B%22%20edge%3D%221%22%20parent%3D%221%22%3E%3CmxGeometry%20width%3D%2250%22%20height%3D%2250%22%20relative%3D%221%22%20as%3D%22geometry%22%3E%3CmxPoint%20x%3D%22636%22%20y%3D%221305%22%20as%3D%22sourcePoint%22%2F%3E%3CmxPoint%20x%3D%221388%22%20y%3D%22810%22%20as%3D%22targetPoint%22%2F%3E%3C%2FmxGeometry%3E%3C%2FmxCell%3E%3C%2Froot%3E%3C%2FmxGraphModel%3E&lt;/span&gt;" style="text;html=1;align=center;verticalAlign=middle;whiteSpace=wrap;rounded=0;" vertex="1" parent="1">
          <mxGeometry x="1060" y="965" width="60" height="30" as="geometry" />
        </mxCell>
        <mxCell id="hp2ctFzZmuVKrJQSW8B8-105" value="&amp;lt;&amp;lt;include&amp;gt;&amp;gt;&lt;span style=&quot;color: rgba(0, 0, 0, 0); font-family: monospace; font-size: 0px; text-align: start; text-wrap-mode: nowrap;&quot;&gt;%3CmxGraphModel%3E%3Croot%3E%3CmxCell%20id%3D%220%22%2F%3E%3CmxCell%20id%3D%221%22%20parent%3D%220%22%2F%3E%3CmxCell%20id%3D%222%22%20value%3D%22%22%20style%3D%22endArrow%3Dnone%3Bdashed%3D1%3Bhtml%3D1%3Brounded%3D0%3BedgeStyle%3DorthogonalEdgeStyle%3BentryX%3D0.5%3BentryY%3D1%3BentryDx%3D0%3BentryDy%3D0%3B%22%20edge%3D%221%22%20parent%3D%221%22%3E%3CmxGeometry%20width%3D%2250%22%20height%3D%2250%22%20relative%3D%221%22%20as%3D%22geometry%22%3E%3CmxPoint%20x%3D%22636%22%20y%3D%221305%22%20as%3D%22sourcePoint%22%2F%3E%3CmxPoint%20x%3D%221388%22%20y%3D%22810%22%20as%3D%22targetPoint%22%2F%3E%3C%2FmxGeometry%3E%3C%2FmxCell%3E%3C%2Froot%3E%3C%2FmxGraphModel%3E&lt;/span&gt;" style="text;html=1;align=center;verticalAlign=middle;whiteSpace=wrap;rounded=0;" vertex="1" parent="1">
          <mxGeometry x="1070" y="1025" width="60" height="30" as="geometry" />
        </mxCell>
        <mxCell id="hp2ctFzZmuVKrJQSW8B8-106" value="&amp;lt;&amp;lt;include&amp;gt;&amp;gt;&lt;span style=&quot;color: rgba(0, 0, 0, 0); font-family: monospace; font-size: 0px; text-align: start; text-wrap-mode: nowrap;&quot;&gt;%3CmxGraphModel%3E%3Croot%3E%3CmxCell%20id%3D%220%22%2F%3E%3CmxCell%20id%3D%221%22%20parent%3D%220%22%2F%3E%3CmxCell%20id%3D%222%22%20value%3D%22%22%20style%3D%22endArrow%3Dnone%3Bdashed%3D1%3Bhtml%3D1%3Brounded%3D0%3BedgeStyle%3DorthogonalEdgeStyle%3BentryX%3D0.5%3BentryY%3D1%3BentryDx%3D0%3BentryDy%3D0%3B%22%20edge%3D%221%22%20parent%3D%221%22%3E%3CmxGeometry%20width%3D%2250%22%20height%3D%2250%22%20relative%3D%221%22%20as%3D%22geometry%22%3E%3CmxPoint%20x%3D%22636%22%20y%3D%221305%22%20as%3D%22sourcePoint%22%2F%3E%3CmxPoint%20x%3D%221388%22%20y%3D%22810%22%20as%3D%22targetPoint%22%2F%3E%3C%2FmxGeometry%3E%3C%2FmxCell%3E%3C%2Froot%3E%3C%2FmxGraphModel%3E&lt;/span&gt;" style="text;html=1;align=center;verticalAlign=middle;whiteSpace=wrap;rounded=0;" vertex="1" parent="1">
          <mxGeometry x="1080" y="1157" width="60" height="30" as="geometry" />
        </mxCell>
        <mxCell id="hp2ctFzZmuVKrJQSW8B8-107" value="&amp;lt;&amp;lt;include&amp;gt;&amp;gt;&lt;span style=&quot;color: rgba(0, 0, 0, 0); font-family: monospace; font-size: 0px; text-align: start; text-wrap-mode: nowrap;&quot;&gt;%3CmxGraphModel%3E%3Croot%3E%3CmxCell%20id%3D%220%22%2F%3E%3CmxCell%20id%3D%221%22%20parent%3D%220%22%2F%3E%3CmxCell%20id%3D%222%22%20value%3D%22%22%20style%3D%22endArrow%3Dnone%3Bdashed%3D1%3Bhtml%3D1%3Brounded%3D0%3BedgeStyle%3DorthogonalEdgeStyle%3BentryX%3D0.5%3BentryY%3D1%3BentryDx%3D0%3BentryDy%3D0%3B%22%20edge%3D%221%22%20parent%3D%221%22%3E%3CmxGeometry%20width%3D%2250%22%20height%3D%2250%22%20relative%3D%221%22%20as%3D%22geometry%22%3E%3CmxPoint%20x%3D%22636%22%20y%3D%221305%22%20as%3D%22sourcePoint%22%2F%3E%3CmxPoint%20x%3D%221388%22%20y%3D%22810%22%20as%3D%22targetPoint%22%2F%3E%3C%2FmxGeometry%3E%3C%2FmxCell%3E%3C%2Froot%3E%3C%2FmxGraphModel%3E&lt;/span&gt;" style="text;html=1;align=center;verticalAlign=middle;whiteSpace=wrap;rounded=0;" vertex="1" parent="1">
          <mxGeometry x="1090" y="1243" width="60" height="30" as="geometry" />
        </mxCell>
        <mxCell id="hp2ctFzZmuVKrJQSW8B8-108" value="&amp;lt;&amp;lt;include&amp;gt;&amp;gt;&lt;span style=&quot;color: rgba(0, 0, 0, 0); font-family: monospace; font-size: 0px; text-align: start; text-wrap-mode: nowrap;&quot;&gt;%3CmxGraphModel%3E%3Croot%3E%3CmxCell%20id%3D%220%22%2F%3E%3CmxCell%20id%3D%221%22%20parent%3D%220%22%2F%3E%3CmxCell%20id%3D%222%22%20value%3D%22%22%20style%3D%22endArrow%3Dnone%3Bdashed%3D1%3Bhtml%3D1%3Brounded%3D0%3BedgeStyle%3DorthogonalEdgeStyle%3BentryX%3D0.5%3BentryY%3D1%3BentryDx%3D0%3BentryDy%3D0%3B%22%20edge%3D%221%22%20parent%3D%221%22%3E%3CmxGeometry%20width%3D%2250%22%20height%3D%2250%22%20relative%3D%221%22%20as%3D%22geometry%22%3E%3CmxPoint%20x%3D%22636%22%20y%3D%221305%22%20as%3D%22sourcePoint%22%2F%3E%3CmxPoint%20x%3D%221388%22%20y%3D%22810%22%20as%3D%22targetPoint%22%2F%3E%3C%2FmxGeometry%3E%3C%2FmxCell%3E%3C%2Froot%3E%3C%2FmxGraphModel%3E&lt;/span&gt;" style="text;html=1;align=center;verticalAlign=middle;whiteSpace=wrap;rounded=0;" vertex="1" parent="1">
          <mxGeometry x="1100" y="1280" width="60" height="30" as="geometry" />
        </mxCell>
        <mxCell id="hp2ctFzZmuVKrJQSW8B8-109" value="&amp;lt;&amp;lt;include&amp;gt;&amp;gt;&lt;span style=&quot;color: rgba(0, 0, 0, 0); font-family: monospace; font-size: 0px; text-align: start; text-wrap-mode: nowrap;&quot;&gt;%3CmxGraphModel%3E%3Croot%3E%3CmxCell%20id%3D%220%22%2F%3E%3CmxCell%20id%3D%221%22%20parent%3D%220%22%2F%3E%3CmxCell%20id%3D%222%22%20value%3D%22%22%20style%3D%22endArrow%3Dnone%3Bdashed%3D1%3Bhtml%3D1%3Brounded%3D0%3BedgeStyle%3DorthogonalEdgeStyle%3BentryX%3D0.5%3BentryY%3D1%3BentryDx%3D0%3BentryDy%3D0%3B%22%20edge%3D%221%22%20parent%3D%221%22%3E%3CmxGeometry%20width%3D%2250%22%20height%3D%2250%22%20relative%3D%221%22%20as%3D%22geometry%22%3E%3CmxPoint%20x%3D%22636%22%20y%3D%221305%22%20as%3D%22sourcePoint%22%2F%3E%3CmxPoint%20x%3D%221388%22%20y%3D%22810%22%20as%3D%22targetPoint%22%2F%3E%3C%2FmxGeometry%3E%3C%2FmxCell%3E%3C%2Froot%3E%3C%2FmxGraphModel%3E&lt;/span&gt;" style="text;html=1;align=center;verticalAlign=middle;whiteSpace=wrap;rounded=0;" vertex="1" parent="1">
          <mxGeometry x="1110" y="1345" width="60" height="30" as="geometry" />
        </mxCell>
        <mxCell id="hp2ctFzZmuVKrJQSW8B8-110" value="&amp;lt;&amp;lt;extend&amp;gt;&amp;gt;" style="text;html=1;align=center;verticalAlign=middle;whiteSpace=wrap;rounded=0;" vertex="1" parent="1">
          <mxGeometry x="787" y="1132" width="60" height="30" as="geometry" />
        </mxCell>
        <mxCell id="hp2ctFzZmuVKrJQSW8B8-111" value="&amp;lt;&amp;lt;extend&amp;gt;&amp;gt;" style="text;html=1;align=center;verticalAlign=middle;whiteSpace=wrap;rounded=0;" vertex="1" parent="1">
          <mxGeometry x="819" y="1186" width="60" height="30" as="geometry" />
        </mxCell>
        <mxCell id="hp2ctFzZmuVKrJQSW8B8-112" value="&amp;lt;&amp;lt;extend&amp;gt;&amp;gt;" style="text;html=1;align=center;verticalAlign=middle;whiteSpace=wrap;rounded=0;rotation=-5;" vertex="1" parent="1">
          <mxGeometry x="686" y="1007" width="60" height="30" as="geometry" />
        </mxCell>
        <mxCell id="hp2ctFzZmuVKrJQSW8B8-113" value="&amp;lt;&amp;lt;extend&amp;gt;&amp;gt;" style="text;html=1;align=center;verticalAlign=middle;whiteSpace=wrap;rounded=0;rotation=15;" vertex="1" parent="1">
          <mxGeometry x="696" y="1057" width="60" height="30" as="geometry" />
        </mxCell>
      </root>
    </mxGraphModel>
  </diagram>
</mxfile>
